<svg width="184" height="184" viewBox="0 0 184 184" fill="none" xmlns="http://www.w3.org/2000/svg">
<rect width="184" height="184" fill="#E5E5E500"/>
<path d="M22.9998 0H120.709L172.499 51.5892V172.5C172.499 178.854 167.348 184 161 184H22.9998C16.6516 184 11.4999 178.854 11.4999 172.5V11.4999C11.4999 5.14636 16.6522 0 22.9998 0Z" fill="#4682B4"/>
<path d="M172.333 51.7498H132.25C125.902 51.7498 120.75 46.5981 120.75 40.2499V0.114822L172.333 51.7498Z" fill="#315e85"/>
<path d="M59.5859 82.4C62.5939 82.4 65.1699 83.152 67.3139 84.656C69.4899 86.128 71.1379 88.144 72.2579 90.704C73.4099 93.232 73.9859 96.064 73.9859 99.2C73.9859 102.336 73.4099 105.184 72.2579 107.744C71.1379 110.272 69.4899 112.288 67.3139 113.792C65.1699 115.264 62.5939 116 59.5859 116H48.1139C47.2819 116 46.5779 115.728 46.0019 115.184C45.4579 114.608 45.1859 113.904 45.1859 113.072V85.328C45.1859 84.496 45.4579 83.808 46.0019 83.264C46.5779 82.688 47.2819 82.4 48.1139 82.4H59.5859ZM59.1059 110.48C61.9859 110.48 64.1459 109.424 65.5859 107.312C67.0259 105.168 67.7459 102.464 67.7459 99.2C67.7459 95.936 67.0099 93.248 65.5379 91.136C64.0979 88.992 61.9539 87.92 59.1059 87.92H51.1859V110.48H59.1059ZM110.41 99.2C110.41 102.368 109.706 105.28 108.298 107.936C106.89 110.56 104.938 112.64 102.442 114.176C99.9784 115.712 97.1944 116.48 94.0904 116.48C90.9864 116.48 88.1864 115.712 85.6904 114.176C83.2264 112.64 81.2904 110.56 79.8824 107.936C78.5064 105.28 77.8184 102.368 77.8184 99.2C77.8184 96.032 78.5064 93.136 79.8824 90.512C81.2904 87.856 83.2264 85.76 85.6904 84.224C88.1864 82.688 90.9864 81.92 94.0904 81.92C97.1944 81.92 99.9784 82.688 102.442 84.224C104.938 85.76 106.89 87.856 108.298 90.512C109.706 93.136 110.41 96.032 110.41 99.2ZM104.17 99.2C104.17 97.056 103.738 95.12 102.874 93.392C102.01 91.632 100.81 90.24 99.2744 89.216C97.7384 88.192 96.0104 87.68 94.0904 87.68C92.1384 87.68 90.3944 88.192 88.8584 89.216C87.3544 90.208 86.1704 91.584 85.3064 93.344C84.4744 95.104 84.0584 97.056 84.0584 99.2C84.0584 101.344 84.4744 103.296 85.3064 105.056C86.1704 106.816 87.3544 108.208 88.8584 109.232C90.3944 110.224 92.1384 110.72 94.0904 110.72C96.0104 110.72 97.7384 110.208 99.2744 109.184C100.81 108.16 102.01 106.784 102.874 105.056C103.738 103.296 104.17 101.344 104.17 99.2ZM139.44 84.032C140.432 84.544 140.928 85.36 140.928 86.48C140.928 87.152 140.688 87.808 140.208 88.448C139.696 89.12 139.04 89.456 138.24 89.456C137.696 89.456 137.152 89.312 136.608 89.024C135.04 88.288 133.344 87.92 131.52 87.92C129.28 87.92 127.328 88.4 125.664 89.36C124 90.288 122.72 91.616 121.824 93.344C120.928 95.04 120.48 96.992 120.48 99.2C120.48 102.976 121.488 105.84 123.504 107.792C125.552 109.744 128.224 110.72 131.52 110.72C133.472 110.72 135.168 110.352 136.608 109.616C137.184 109.36 137.696 109.232 138.144 109.232C138.976 109.232 139.68 109.584 140.256 110.288C140.736 110.896 140.976 111.552 140.976 112.256C140.976 112.768 140.848 113.232 140.592 113.648C140.336 114.064 139.968 114.384 139.488 114.608C136.992 115.856 134.336 116.48 131.52 116.48C128.384 116.48 125.504 115.824 122.88 114.512C120.256 113.168 118.16 111.2 116.592 108.608C115.024 106.016 114.24 102.88 114.24 99.2C114.24 95.936 114.976 93.008 116.448 90.416C117.952 87.824 120.016 85.808 122.64 84.368C125.264 82.896 128.224 82.16 131.52 82.16C134.368 82.16 137.008 82.784 139.44 84.032Z" fill="white"/>
</svg>
