<?xml version="1.0" encoding="iso-8859-1"?>
<!-- Generator: Adobe Illustrator 19.0.0, SVG Export Plug-In . SVG Version: 6.00 Build 0)  -->
<svg version="1.1" id="Layer_1" xmlns="http://www.w3.org/2000/svg" xmlns:xlink="http://www.w3.org/1999/xlink" x="0px" y="0px"
	 viewBox="0 0 473.677 473.677" style="enable-background:new 0 0 473.677 473.677;" xml:space="preserve">
<path style="fill:#6EC2CB;" d="M0,236.842C0,106.024,106.036,0,236.835,0c130.807,0,236.842,106.024,236.842,236.842
	c0,130.792-106.036,236.835-236.842,236.835C106.036,473.677,0,367.634,0,236.842z"/>
<path style="fill:#FFFFFF;" d="M375.958,227.265c-5.235,0-10.246,0.987-14.943,2.737c-5.217-36.315-33.708-64.078-68.094-64.078
	c-11.189,0-21.749,2.973-31.098,8.193c-14.898-26.147-41.274-43.54-71.344-43.54c-38.63,0-71.112,28.735-81.044,67.847
	c-28.413,5.976-49.893,33.473-49.893,66.546c0,37.441,27.505,67.787,61.434,67.787c3.784,0,7.464-0.423,11.065-1.148
	c1.387,0.236,2.805,0.393,4.259,0.393h234.116c3.051,0,5.991-0.542,8.743-1.526c24.382-1.825,43.656-24.154,43.656-51.52
	C422.811,250.413,401.836,227.265,375.958,227.265z"/>
<path style="fill:#6EC2CB;" d="M308.713,219.902c-13.059,0-26.117,0-39.18,0c0-37.953,0-75.906,0-113.859
	c0-36.225-56.109-36.543-56.109-0.404c0,38.088,0,76.179,0,114.266c-12.46,0-24.921,0-37.381,0c-0.273,0.004-0.542,0.03-0.811,0.071
	c-2.894,0.254-4.775,1.993-5.613,4.192c-1.084,2.176-1.058,4.832,0.841,7.135c0.236,0.333,0.512,0.639,0.815,0.924
	c22.026,22.022,44.048,44.048,66.078,66.071c2.711,2.711,7.225,2.64,9.914-0.052c22.127-22.131,44.25-44.262,66.377-66.392
	C317.927,227.568,314.779,219.902,308.713,219.902z"/>
<g>
</g>
<g>
</g>
<g>
</g>
<g>
</g>
<g>
</g>
<g>
</g>
<g>
</g>
<g>
</g>
<g>
</g>
<g>
</g>
<g>
</g>
<g>
</g>
<g>
</g>
<g>
</g>
<g>
</g>
</svg>
