<svg width="493" height="492" viewBox="0 0 493 492" fill="none" xmlns="http://www.w3.org/2000/svg">
<rect x="83" y="96" width="325" height="300" fill="white"/>
<path d="M220.5 1.19998C210.2 2.19998 189.7 6.19998 179.5 9.09998C84.8 36.2 15.7 116.4 2.50001 214.5C0.300006 230.4 0.300006 261.4 2.50001 277.5C14.3 365.6 71.3 439.9 153.3 473.9C170.9 481.2 189.8 486.3 211 489.7C227.5 492.2 265.8 492.2 282.5 489.6C309.4 485.4 331 478.6 355.6 466.5C428.2 430.7 477.6 362.8 490.2 281.5C493.2 261.7 493.2 230.3 490.2 210.5C481.8 156.1 458.8 110.6 420.1 72C400.4 52.4 384 40.2 360.5 27.9C332.7 13.3 301.8 4.09998 270.1 0.99998C257.9 -0.20002 233.2 -0.10002 220.5 1.19998ZM300.5 140.4C329.3 149 351.4 172.4 358.6 202C360.5 210 361.1 225.5 359.7 235L358.9 240.5L364.2 243C367.6 244.5 372.5 248.4 377.6 253.5C389.9 265.7 395 277.9 395 295.3C395 312.3 389.7 325.2 378 337.1C369.6 345.6 360.4 351 349.8 353.5C340.4 355.7 152.6 355.7 143.2 353.5C122.5 348.6 104.9 331.3 99.5 310.3C97.6 303 97.6 288 99.5 280.7C104.4 261.9 120 244.9 137.6 239.3C142.8 237.7 142.8 237.7 142.3 234C141.4 227.8 143.9 216.4 147.7 208.8C156.5 191.3 176.8 179.6 195.5 181.4L201.5 182L206 174.9C217.3 157 237.9 143.1 260 138.4C270.4 136.2 289.4 137.2 300.5 140.4Z" fill="#4F8DC6"/>
<path d="M223.7 227.8C197.2 254.4 197 255 218.7 255H231.9L232.2 279.9C232.5 303.3 232.6 305 234.6 307.6C238.1 312.3 241.4 314.2 246.4 314.2C251.7 314.3 255.1 312.3 258.8 307C260.9 303.8 261 303 261 279.4V255H275C287.7 255 289 254.8 290 253.1C290.5 252 291 250.8 291 250.4C291 249.9 281.5 240 269.8 228.3C256 214.5 247.8 207 246.5 207C245.2 207 237.2 214.3 223.7 227.8Z" fill="#4F8DC6"/>
</svg>
