<svg width="184" height="184" viewBox="0 0 184 184" fill="none" xmlns="http://www.w3.org/2000/svg">
<rect width="184" height="184" fill="#E5E5E500"/>
<path d="M22.9998 0H120.709L172.499 51.5892V172.5C172.499 178.854 167.348 184 161 184H22.9998C16.6516 184 11.4999 178.854 11.4999 172.5V11.4999C11.4999 5.14636 16.6522 0 22.9998 0Z" fill="#4CE264"/>
<path d="M172.333 51.7498H132.25C125.902 51.7498 120.75 46.5981 120.75 40.2499V0.114822L172.333 51.7498Z" fill="#29B537"/>
<path d="M77.1326 111.584C77.5166 112.096 77.7086 112.688 77.7086 113.36C77.7086 114.192 77.4046 114.88 76.7966 115.424C76.1886 115.968 75.5326 116.24 74.8286 116.24C73.9006 116.24 73.1166 115.824 72.4766 114.992L63.9326 103.616L55.6286 114.896C54.9886 115.792 54.1886 116.24 53.2286 116.24C52.5246 116.24 51.9166 115.984 51.4046 115.472C50.8926 114.96 50.6366 114.368 50.6366 113.696C50.6366 112.992 50.8766 112.336 51.3566 111.728L60.6206 99.2L51.3566 86.912C50.9406 86.4 50.7326 85.824 50.7326 85.184C50.7326 84.384 51.0366 83.696 51.6446 83.12C52.2526 82.544 52.9246 82.256 53.6606 82.256C54.5886 82.256 55.3726 82.672 56.0126 83.504L64.4606 94.736L72.7166 83.744C73.0366 83.296 73.4046 82.96 73.8206 82.736C74.2366 82.48 74.6526 82.352 75.0686 82.352C75.7726 82.352 76.3966 82.64 76.9406 83.216C77.4846 83.76 77.7566 84.368 77.7566 85.04C77.7566 85.648 77.5486 86.224 77.1326 86.768L67.7726 99.104L77.1326 111.584ZM102.058 110.384C102.89 110.384 103.578 110.656 104.122 111.2C104.698 111.712 104.986 112.384 104.986 113.216C104.986 114.016 104.698 114.688 104.122 115.232C103.578 115.744 102.89 116 102.058 116H86.4577C85.6257 116 84.9217 115.728 84.3457 115.184C83.8017 114.608 83.5297 113.904 83.5297 113.072V85.328C83.5297 84.496 83.8177 83.808 84.3937 83.264C84.9697 82.688 85.7057 82.4 86.6017 82.4C87.4017 82.4 88.0897 82.688 88.6657 83.264C89.2417 83.808 89.5297 84.496 89.5297 85.328V110.384H102.058ZM121.283 116.48C118.979 116.48 116.931 116.192 115.139 115.616C113.347 115.04 111.667 114.064 110.099 112.688C109.235 111.92 108.803 111.072 108.803 110.144C108.803 109.408 109.075 108.768 109.619 108.224C110.163 107.648 110.819 107.36 111.587 107.36C112.195 107.36 112.739 107.552 113.219 107.936C114.499 108.992 115.747 109.76 116.963 110.24C118.179 110.72 119.619 110.96 121.283 110.96C123.075 110.96 124.611 110.56 125.891 109.76C127.203 108.96 127.859 107.968 127.859 106.784C127.859 105.344 127.219 104.224 125.939 103.424C124.659 102.592 122.627 101.968 119.843 101.552C112.835 100.528 109.331 97.264 109.331 91.76C109.331 89.744 109.859 88 110.915 86.528C111.971 85.024 113.411 83.888 115.235 83.12C117.059 82.32 119.091 81.92 121.331 81.92C123.347 81.92 125.235 82.224 126.995 82.832C128.787 83.44 130.275 84.24 131.459 85.232C132.387 85.968 132.851 86.816 132.851 87.776C132.851 88.512 132.579 89.168 132.035 89.744C131.491 90.288 130.851 90.56 130.115 90.56C129.635 90.56 129.203 90.416 128.819 90.128C127.987 89.456 126.819 88.848 125.315 88.304C123.843 87.728 122.515 87.44 121.331 87.44C119.315 87.44 117.747 87.824 116.627 88.592C115.539 89.328 114.995 90.304 114.995 91.52C114.995 92.896 115.555 93.936 116.675 94.64C117.827 95.344 119.619 95.92 122.051 96.368C124.803 96.848 126.995 97.472 128.627 98.24C130.291 98.976 131.539 100 132.371 101.312C133.203 102.592 133.619 104.304 133.619 106.448C133.619 108.464 133.043 110.24 131.891 111.776C130.771 113.28 129.267 114.448 127.379 115.28C125.491 116.08 123.459 116.48 121.283 116.48Z" fill="white"/>
</svg>
